<svg width="256" height="256" viewBox="0 0 256 256" fill="none" xmlns="http://www.w3.org/2000/svg">
<rect width="256" height="256" fill="white"/>
<rect width="256" height="256" fill="black"/>
<path d="M104.896 112.896H124.352C123.755 107.605 122.304 102.912 120 98.816C117.696 94.72 114.752 91.3067 111.168 88.576C107.669 85.76 103.659 83.6267 99.136 82.176C94.6987 80.7253 89.9627 80 84.928 80C77.9307 80 71.616 81.2373 65.984 83.712C60.4373 86.1867 55.744 89.6 51.904 93.952C48.064 98.304 45.12 103.424 43.072 109.312C41.024 115.115 40 121.429 40 128.256C40 134.912 41.024 141.141 43.072 146.944C45.12 152.661 48.064 157.653 51.904 161.92C55.744 166.187 60.4373 169.557 65.984 172.032C71.616 174.421 77.9307 175.616 84.928 175.616C90.56 175.616 95.7227 174.763 100.416 173.056C105.109 171.349 109.205 168.875 112.704 165.632C116.203 162.389 119.019 158.464 121.152 153.856C123.285 149.248 124.608 144.085 125.12 138.368H105.664C104.896 144.512 102.763 149.461 99.264 153.216C95.8507 156.971 91.072 158.848 84.928 158.848C80.4053 158.848 76.5653 157.995 73.408 156.288C70.2507 154.496 67.6907 152.149 65.728 149.248C63.7653 146.347 62.3147 143.104 61.376 139.52C60.5227 135.851 60.096 132.096 60.096 128.256C60.096 124.245 60.5227 120.363 61.376 116.608C62.3147 112.853 63.7653 109.525 65.728 106.624C67.6907 103.637 70.2507 101.291 73.408 99.584C76.5653 97.792 80.4053 96.896 84.928 96.896C87.4027 96.896 89.7493 97.3227 91.968 98.176C94.272 98.944 96.32 100.053 98.112 101.504C99.904 102.955 101.397 104.661 102.592 106.624C103.787 108.501 104.555 110.592 104.896 112.896Z" fill="white"/>
<path d="M202.331 163.2L204.379 173.568H217.179V124.16H178.779V139.136H199.003C198.406 145.536 196.272 150.443 192.603 153.856C189.019 157.184 183.899 158.848 177.243 158.848C172.72 158.848 168.88 157.995 165.723 156.288C162.566 154.496 160.006 152.149 158.043 149.248C156.08 146.347 154.63 143.104 153.691 139.52C152.838 135.851 152.411 132.096 152.411 128.256C152.411 124.245 152.838 120.363 153.691 116.608C154.63 112.853 156.08 109.525 158.043 106.624C160.006 103.637 162.566 101.291 165.723 99.584C168.88 97.792 172.72 96.896 177.243 96.896C182.107 96.896 186.246 98.176 189.659 100.736C193.072 103.296 195.376 107.136 196.571 112.256H215.771C215.259 107.051 213.851 102.443 211.547 98.432C209.243 94.4213 206.299 91.0507 202.715 88.32C199.216 85.5893 195.248 83.5413 190.811 82.176C186.459 80.7253 181.936 80 177.243 80C170.246 80 163.931 81.2373 158.299 83.712C152.752 86.1867 148.059 89.6 144.219 93.952C140.379 98.304 137.435 103.424 135.387 109.312C133.339 115.115 132.315 121.429 132.315 128.256C132.315 134.912 133.339 141.141 135.387 146.944C137.435 152.661 140.379 157.653 144.219 161.92C148.059 166.187 152.752 169.557 158.299 172.032C163.931 174.421 170.246 175.616 177.243 175.616C181.68 175.616 186.075 174.72 190.427 172.928C194.779 171.051 198.747 167.808 202.331 163.2Z" fill="white"/>
</svg>
